<mxfile host="app.diagrams.net" modified="2024-01-15T10:00:00.000Z" agent="5.0" etag="abc123" version="22.1.16" type="device">
  <diagram name="Architecture Générale" id="architecture-generale">
    <mxGraphModel dx="1422" dy="794" grid="1" gridSize="10" guides="1" tooltips="1" connect="1" arrows="1" fold="1" page="1" pageScale="1" pageWidth="1169" pageHeight="827" math="0" shadow="0">
      <root>
        <mxCell id="0" />
        <mxCell id="1" parent="0" />
        
        <!-- Titre -->
        <mxCell id="title" value="R-Type 2 - Architecture Logicielle Générale" style="text;html=1;strokeColor=none;fillColor=none;align=center;verticalAlign=middle;whiteSpace=wrap;rounded=0;fontSize=20;fontStyle=1;" vertex="1" parent="1">
          <mxGeometry x="300" y="20" width="569" height="30" as="geometry" />
        </mxCell>
        
        <!-- Couche Présentation -->
        <mxCell id="presentation-layer" value="COUCHE PRÉSENTATION" style="rounded=1;whiteSpace=wrap;html=1;fillColor=#e1d5e7;strokeColor=#9673a6;fontSize=14;fontStyle=1;" vertex="1" parent="1">
          <mxGeometry x="50" y="80" width="1070" height="40" as="geometry" />
        </mxCell>
        
        <!-- HTML/CSS -->
        <mxCell id="html-css" value="index.html&#xa;CSS Styling&#xa;UI Elements" style="rounded=1;whiteSpace=wrap;html=1;fillColor=#f8cecc;strokeColor=#b85450;" vertex="1" parent="1">
          <mxGeometry x="80" y="140" width="120" height="80" as="geometry" />
        </mxCell>
        
        <!-- Phaser.js -->
        <mxCell id="phaser" value="Phaser.js 3.70.0&#xa;Game Engine&#xa;Canvas Rendering" style="rounded=1;whiteSpace=wrap;html=1;fillColor=#d5e8d4;strokeColor=#82b366;" vertex="1" parent="1">
          <mxGeometry x="240" y="140" width="120" height="80" as="geometry" />
        </mxCell>
        
        <!-- Assets -->
        <mxCell id="assets" value="Assets&#xa;SVG Sprites&#xa;Images" style="rounded=1;whiteSpace=wrap;html=1;fillColor=#fff2cc;strokeColor=#d6b656;" vertex="1" parent="1">
          <mxGeometry x="400" y="140" width="120" height="80" as="geometry" />
        </mxCell>
        
        <!-- Couche Logique Métier -->
        <mxCell id="business-layer" value="COUCHE LOGIQUE MÉTIER" style="rounded=1;whiteSpace=wrap;html=1;fillColor=#dae8fc;strokeColor=#6c8ebf;fontSize=14;fontStyle=1;" vertex="1" parent="1">
          <mxGeometry x="50" y="260" width="1070" height="40" as="geometry" />
        </mxCell>
        
        <!-- Scenes -->
        <mxCell id="scenes-group" value="SCÈNES" style="rounded=1;whiteSpace=wrap;html=1;fillColor=#e1d5e7;strokeColor=#9673a6;fontSize=12;fontStyle=1;" vertex="1" parent="1">
          <mxGeometry x="80" y="320" width="300" height="30" as="geometry" />
        </mxCell>
        
        <mxCell id="preload-scene" value="PreloadScene&#xa;Asset Loading&#xa;SVG Management" style="rounded=1;whiteSpace=wrap;html=1;fillColor=#f8cecc;strokeColor=#b85450;" vertex="1" parent="1">
          <mxGeometry x="80" y="360" width="90" height="80" as="geometry" />
        </mxCell>
        
        <mxCell id="menu-scene" value="MenuScene&#xa;Main Menu&#xa;Navigation" style="rounded=1;whiteSpace=wrap;html=1;fillColor=#f8cecc;strokeColor=#b85450;" vertex="1" parent="1">
          <mxGeometry x="180" y="360" width="90" height="80" as="geometry" />
        </mxCell>
        
        <mxCell id="game-scene" value="GameScene&#xa;Main Gameplay&#xa;Core Logic" style="rounded=1;whiteSpace=wrap;html=1;fillColor=#f8cecc;strokeColor=#b85450;" vertex="1" parent="1">
          <mxGeometry x="280" y="360" width="90" height="80" as="geometry" />
        </mxCell>
        
        <!-- Entities -->
        <mxCell id="entities-group" value="ENTITÉS" style="rounded=1;whiteSpace=wrap;html=1;fillColor=#e1d5e7;strokeColor=#9673a6;fontSize=12;fontStyle=1;" vertex="1" parent="1">
          <mxGeometry x="420" y="320" width="350" height="30" as="geometry" />
        </mxCell>
        
        <mxCell id="player" value="Player&#xa;DeLorean Ship&#xa;Movement/Fire" style="rounded=1;whiteSpace=wrap;html=1;fillColor=#d5e8d4;strokeColor=#82b366;" vertex="1" parent="1">
          <mxGeometry x="420" y="360" width="80" height="80" as="geometry" />
        </mxCell>
        
        <mxCell id="enemy" value="Enemy&#xa;3 Ship Types&#xa;AI/Fire Logic" style="rounded=1;whiteSpace=wrap;html=1;fillColor=#d5e8d4;strokeColor=#82b366;" vertex="1" parent="1">
          <mxGeometry x="510" y="360" width="80" height="80" as="geometry" />
        </mxCell>
        
        <mxCell id="boss" value="Boss&#xa;Epic Battles&#xa;Multi-Phase" style="rounded=1;whiteSpace=wrap;html=1;fillColor=#d5e8d4;strokeColor=#82b366;" vertex="1" parent="1">
          <mxGeometry x="600" y="360" width="80" height="80" as="geometry" />
        </mxCell>
        
        <mxCell id="bullet" value="Bullet&#xa;Projectiles&#xa;Collision" style="rounded=1;whiteSpace=wrap;html=1;fillColor=#d5e8d4;strokeColor=#82b366;" vertex="1" parent="1">
          <mxGeometry x="690" y="360" width="80" height="80" as="geometry" />
        </mxCell>
        
        <!-- Managers -->
        <mxCell id="managers-group" value="GESTIONNAIRES" style="rounded=1;whiteSpace=wrap;html=1;fillColor=#e1d5e7;strokeColor=#9673a6;fontSize=12;fontStyle=1;" vertex="1" parent="1">
          <mxGeometry x="820" y="320" width="300" height="30" as="geometry" />
        </mxCell>
        
        <mxCell id="score-manager" value="ScoreManager&#xa;Points System&#xa;High Scores" style="rounded=1;whiteSpace=wrap;html=1;fillColor=#fff2cc;strokeColor=#d6b656;" vertex="1" parent="1">
          <mxGeometry x="820" y="360" width="90" height="80" as="geometry" />
        </mxCell>
        
        <mxCell id="level-manager" value="LevelManager&#xa;Progression&#xa;Difficulty" style="rounded=1;whiteSpace=wrap;html=1;fillColor=#fff2cc;strokeColor=#d6b656;" vertex="1" parent="1">
          <mxGeometry x="920" y="360" width="90" height="80" as="geometry" />
        </mxCell>
        
        <mxCell id="alien-terrain" value="AlienTerrain&#xa;Decorations&#xa;Collisions" style="rounded=1;whiteSpace=wrap;html=1;fillColor=#fff2cc;strokeColor=#d6b656;" vertex="1" parent="1">
          <mxGeometry x="1020" y="360" width="90" height="80" as="geometry" />
        </mxCell>
        
        <!-- Couche Données -->
        <mxCell id="data-layer" value="COUCHE DONNÉES" style="rounded=1;whiteSpace=wrap;html=1;fillColor=#f0f0f0;strokeColor=#666666;fontSize=14;fontStyle=1;" vertex="1" parent="1">
          <mxGeometry x="50" y="480" width="1070" height="40" as="geometry" />
        </mxCell>
        
        <!-- LocalStorage -->
        <mxCell id="localstorage" value="LocalStorage&#xa;High Scores&#xa;Game Stats" style="rounded=1;whiteSpace=wrap;html=1;fillColor=#e1d5e7;strokeColor=#9673a6;" vertex="1" parent="1">
          <mxGeometry x="200" y="540" width="120" height="80" as="geometry" />
        </mxCell>
        
        <!-- Config -->
        <mxCell id="config" value="GameConfig&#xa;Settings&#xa;Constants" style="rounded=1;whiteSpace=wrap;html=1;fillColor=#e1d5e7;strokeColor=#9673a6;" vertex="1" parent="1">
          <mxGeometry x="400" y="540" width="120" height="80" as="geometry" />
        </mxCell>
        
        <!-- Tests -->
        <mxCell id="tests" value="Test Suite&#xa;132 Tests&#xa;Quality Assurance" style="rounded=1;whiteSpace=wrap;html=1;fillColor=#e1d5e7;strokeColor=#9673a6;" vertex="1" parent="1">
          <mxGeometry x="600" y="540" width="120" height="80" as="geometry" />
        </mxCell>
        
        <!-- Flèches de connexion -->
        <mxCell id="arrow1" style="edgeStyle=orthogonalEdgeStyle;rounded=0;orthogonalLoop=1;jettySize=auto;html=1;exitX=0.5;exitY=1;exitDx=0;exitDy=0;entryX=0.5;entryY=0;entryDx=0;entryDy=0;" edge="1" parent="1" source="phaser" target="game-scene">
          <mxGeometry relative="1" as="geometry" />
        </mxCell>
        
        <mxCell id="arrow2" style="edgeStyle=orthogonalEdgeStyle;rounded=0;orthogonalLoop=1;jettySize=auto;html=1;exitX=0.5;exitY=1;exitDx=0;exitDy=0;entryX=0.5;entryY=0;entryDx=0;entryDy=0;" edge="1" parent="1" source="game-scene" target="player">
          <mxGeometry relative="1" as="geometry" />
        </mxCell>
        
        <mxCell id="arrow3" style="edgeStyle=orthogonalEdgeStyle;rounded=0;orthogonalLoop=1;jettySize=auto;html=1;exitX=0.5;exitY=1;exitDx=0;exitDy=0;entryX=0.5;entryY=0;entryDx=0;entryDy=0;" edge="1" parent="1" source="score-manager" target="localstorage">
          <mxGeometry relative="1" as="geometry" />
        </mxCell>
        
        <!-- Légende -->
        <mxCell id="legend-title" value="LÉGENDE" style="text;html=1;strokeColor=none;fillColor=none;align=center;verticalAlign=middle;whiteSpace=wrap;rounded=0;fontSize=14;fontStyle=1;" vertex="1" parent="1">
          <mxGeometry x="50" y="660" width="100" height="30" as="geometry" />
        </mxCell>
        
        <mxCell id="legend-presentation" value="Présentation" style="rounded=1;whiteSpace=wrap;html=1;fillColor=#f8cecc;strokeColor=#b85450;fontSize=10;" vertex="1" parent="1">
          <mxGeometry x="50" y="690" width="80" height="30" as="geometry" />
        </mxCell>
        
        <mxCell id="legend-entities" value="Entités" style="rounded=1;whiteSpace=wrap;html=1;fillColor=#d5e8d4;strokeColor=#82b366;fontSize=10;" vertex="1" parent="1">
          <mxGeometry x="140" y="690" width="80" height="30" as="geometry" />
        </mxCell>
        
        <mxCell id="legend-managers" value="Gestionnaires" style="rounded=1;whiteSpace=wrap;html=1;fillColor=#fff2cc;strokeColor=#d6b656;fontSize=10;" vertex="1" parent="1">
          <mxGeometry x="230" y="690" width="80" height="30" as="geometry" />
        </mxCell>
        
        <mxCell id="legend-data" value="Données" style="rounded=1;whiteSpace=wrap;html=1;fillColor=#e1d5e7;strokeColor=#9673a6;fontSize=10;" vertex="1" parent="1">
          <mxGeometry x="320" y="690" width="80" height="30" as="geometry" />
        </mxCell>
        
        <!-- Notes -->
        <mxCell id="notes" value="• Architecture en couches (MVC-like)&#xa;• Séparation claire des responsabilités&#xa;• Système modulaire et extensible&#xa;• Tests automatisés intégrés&#xa;• Assets SVG avec fallbacks" style="text;html=1;strokeColor=#666666;fillColor=#f5f5f5;align=left;verticalAlign=top;whiteSpace=wrap;rounded=1;fontSize=10;" vertex="1" parent="1">
          <mxGeometry x="850" y="650" width="270" height="100" as="geometry" />
        </mxCell>
      </root>
    </mxGraphModel>
  </diagram>
</mxfile>
